<?xml version="1.0" encoding="utf-8"?>
<!-- Generator: Adobe Illustrator 23.1.1, SVG Export Plug-In . SVG Version: 6.00 Build 0)  -->
<svg version="1.1" id="Layer_1" xmlns="http://www.w3.org/2000/svg" xmlns:xlink="http://www.w3.org/1999/xlink" x="0px" y="0px"
	 viewBox="0 0 220 220" style="enable-background:new 0 0 220 220;" xml:space="preserve">
<style type="text/css">
	.st0{fill:#FFFFFF;}
	.st1{fill:none;stroke:#000000;stroke-width:0.5;}
	.st2{fill:none;stroke:#000000;stroke-width:6;stroke-miterlimit:10;}
</style>
<title>LO logos_V3</title>
<g id="XMLID_1_">
	<g>
		<path class="st0" d="M173.4,59.6c3.6,5.3,5.4,12.8,5.4,22.5s-3.2,23.1-9.6,40.2c-5.4,14.4-11.3,25.5-17.7,33.3
			c-6.4,7.8-13.2,12.7-20.3,14.7c-5.6,1.5-11.6,1.1-18.1-1.3c-9.7-3.6-15.9-10.1-18.5-19.5c-3.8-13.5-1.6-31.2,6.7-53.3
			c6.9-18.6,14.8-31.9,23.5-40c10.7-9.8,21.9-12.5,33.7-8.1C164.5,50.2,169.8,54.2,173.4,59.6z"/>
		<path class="st0" d="M117.3,178.4l-104.8,0.1v-126h75c-8.9,7.7-15.7,17.7-20.3,30c-6.4,17.1-6.9,33.8-1.5,50
			c6.9,20.6,21.9,35.1,45,43.8C112.9,177.1,115.1,177.8,117.3,178.4z"/>
		<path d="M117.3,178.4c-2.2-0.7-4.4-1.4-6.7-2.2c-23.1-8.6-38.1-23.2-45-43.8c-5.3-16.2-4.8-32.9,1.5-50
			c4.6-12.3,11.3-22.3,20.3-30c5-4.4,10.8-8,17.2-10.9c17.8-8,36.1-8,54.8-0.2c20.8,6.9,35.3,19.1,43.3,36.7s8.5,36,1.3,55.2
			c-6.1,16.4-16.3,29.1-30.5,38C156.6,182.1,137.9,184.4,117.3,178.4z M178.8,82.1c0-9.7-1.8-17.2-5.4-22.5
			c-3.6-5.4-8.9-9.4-15-11.6c-11.8-4.4-23-1.7-33.7,8.1c-8.7,8.1-16.5,21.4-23.5,40c-8.2,22.1-10.5,39.9-6.7,53.3
			c2.6,9.4,8.8,15.9,18.5,19.5c6.5,2.4,12.6,2.9,18.1,1.3c7.1-2,13.9-6.9,20.3-14.7c6.4-7.8,12.4-18.9,17.7-33.3
			C175.6,105.2,178.8,91.8,178.8,82.1z"/>
	</g>
	<g>
		<path class="st1" d="M87.5,52.5c5-4.4,10.8-8,17.2-10.9c17.8-8,36.1-8,54.8-0.2c20.8,6.9,35.3,19.1,43.3,36.7s8.5,36,1.3,55.2
			c-6.1,16.4-16.3,29.1-30.5,38c-17,10.7-35.8,13-56.3,7c-2.2-0.7-4.4-1.4-6.7-2.2c-23.1-8.6-38.1-23.2-45-43.8
			c-5.3-16.2-4.8-32.9,1.5-50C71.8,70.2,78.6,60.2,87.5,52.5z"/>
		<path class="st1" d="M158.4,48c-11.8-4.4-23-1.7-33.7,8.1c-8.7,8.1-16.5,21.4-23.5,40c-8.2,22.1-10.5,39.9-6.7,53.3
			c2.6,9.4,8.8,15.9,18.5,19.5c6.5,2.4,12.6,2.9,18.1,1.3c7.1-2,13.9-6.9,20.3-14.7c6.4-7.8,12.4-18.9,17.7-33.3
			c6.4-17.1,9.6-30.5,9.6-40.2s-1.8-17.2-5.4-22.5C169.8,54.2,164.5,50.2,158.4,48z"/>
		<polyline class="st2" points="130,178.4 117.3,178.4 12.5,178.5 12.5,52.5 87.5,52.5 104.6,52.5 		"/>
	</g>
</g>
</svg>
