<?xml version="1.0" encoding="utf-8"?>
<!-- Generator: Adobe Illustrator 23.1.1, SVG Export Plug-In . SVG Version: 6.00 Build 0)  -->
<svg version="1.1" id="Layer_1" xmlns="http://www.w3.org/2000/svg" xmlns:xlink="http://www.w3.org/1999/xlink" x="0px" y="0px"
	 viewBox="0 0 674.5 91.3" style="enable-background:new 0 0 674.5 91.3;" xml:space="preserve">
<style type="text/css">
	.st0{fill:#FFFFFF;stroke:#000000;stroke-width:2;}
</style>
<title>LO logos_V3</title>
<path class="st0" d="M569-50h25.3V64.5h79.1V90H569V-50z"/>
<path class="st0" d="M1-50h25.3V64.5h79.1V90H1V-50z"/>
<path class="st0" d="M115.8,18c0-45,28-72,67-72C222-54,250-27,250,18s-28,72-67.2,72C143.8,90,115.8,63,115.8,18z M183.8,68.6
	c25.4,0,42.2-18.8,42.2-50.6s-16.8-50.6-42.2-50.6h-2c-25.4,0-42,18.8-42,50.6s16.6,50.6,42,50.6H183.8z"/>
<path class="st0" d="M272.4,18c0-42.2,24.4-72,66.6-72c34,0,55.8,19.8,57.6,47.2h-24c-2.4-16.4-15.2-25.8-32.6-25.8h-2
	c-25.6,0-41.6,20.6-41.6,50.6s16,50.6,41.6,50.6h2c17.4,0,30.2-9.2,32.6-25.8h24C394.8,70.6,373,90,339,90
	C296.8,90,272.4,60.2,272.4,18z"/>
<path class="st0" d="M508,55.8h-62.2L432.6,90h-25L463-50h29l54.4,140h-25.2L508,55.8z M499.6,34.2L476.8-25l-22.8,59.2L499.6,34.2z
	"/>
</svg>
